<?xml version="1.0" encoding="utf-8"?>
<!-- Generator: Adobe Illustrator 24.1.1, SVG Export Plug-In . SVG Version: 6.00 Build 0)  -->
<svg version="1.1" id="Layer_1" xmlns="http://www.w3.org/2000/svg" xmlns:xlink="http://www.w3.org/1999/xlink" x="0px" y="0px"
	 viewBox="0 0 500 500" style="enable-background:new 0 0 500 500;" xml:space="preserve">
<style type="text/css">
	.st0{fill:#002840;}
</style>
<g>
	<path class="st0" d="M494,237.1c-0.1,0.7-0.1,1.3-0.2,2c-0.4,1.8-1.4,3.2-3.1,3.9c-1.2,0.5-2.5,0.8-3.8,0.4
		c-1.2-0.3-2.1-0.9-2.8-1.9c-0.6-0.8-1.1-1.7-1.5-2.7c-0.4-1.2-0.9-2.5-1.3-3.7c-1.8-6.2-4.2-12.2-7-18c-11-23-27.4-41.3-49-54.9
		c-8.3-5.2-17.2-9.3-26.5-12.5c-2-0.7-4-1.4-5.9-2.1c-1.2-0.4-2.3-0.9-3.4-1.5c-0.6-0.3-1.3-0.7-1.8-1.2c-1.4-1.2-2-2.7-1.5-4.5
		c0.2-0.6,0.4-1.2,0.7-1.8c0.7-1.3,1.8-2.1,3.2-2.4c0.9-0.2,1.8-0.3,2.8-0.2c2.1,0.3,4.1,0.8,6.2,1.3c3.7,1,7.3,2.3,10.9,3.7
		c12.8,5.1,24.7,11.8,35.6,20.2c13.1,10.2,23.8,22.5,32.3,36.7c4.8,8,8.7,16.4,12.1,25c0.8,2.1,1.6,4.2,2.3,6.3
		c0.6,1.6,1.1,3.3,1.4,5C493.8,235.3,493.9,236.2,494,237.1z"/>
	<path class="st0" d="M419.1,256.7c-0.3-3.9-1.1-7.7-2.3-11.5c-4.4-14.1-15.6-28.8-34.1-35.7c-5.9-2.2-12-3.3-18.3-3.2
		c-0.5,0-1,0-1.5,0c-3.5-0.1-7,0.3-10.4,1c-12.7,2.7-23.1,9-31.4,18.9c-2.1,2.6-4,5.3-5.7,8.2c-0.3,0.4-0.5,0.8-0.8,1.3
		c0,0.1-0.3,0.1-0.4,0c-0.4-0.6-0.7-1.2-1.1-1.9c-5.4-9.8-12.9-17.4-23-22.5c-5.5-2.8-11.3-4.6-17.3-5.4c-2.9-0.4-5.8-0.5-8.7-0.5
		c-4.1,0-8.1,0.5-12.1,1.5c-11.6,2.8-21.2,8.9-28.8,18c-2.9,3.4-5.3,7.2-7.3,11.3c-0.3,0.5-0.5,1.1-0.8,1.6
		c-0.1,0.1-0.3,0.2-0.5,0.4c-0.3-0.6-0.6-1.1-0.8-1.6c-1.6-3.3-3.7-6.4-5.8-9.4c-1.9-2.7-4.2-5.2-6.6-7.5
		c-8-7.9-17.7-12.1-28.8-13.6c-2.8-0.4-5.6-0.5-8.5-0.5c-2.4,0-4.8,0.2-7.1,0.6c-4.5,0.6-8.8,1.8-13,3.6c-3.4,1.4-6.5,3.2-9.4,5.5
		c-6.7,5.2-12.4,11.3-16.8,18.6c-0.2,0.4-0.4,0.8-0.8,1c-0.2-0.1-0.4-0.2-0.5-0.4c-0.4-0.5-0.7-1.1-1-1.7
		c-5.2-8.5-12.2-15.2-21-20.1c-7.4-4.1-15.4-6.3-23.9-6.7c-2.8-0.1-5.6-0.1-8.5,0.3c-3.8,0.4-7.4,1.2-11,2.6
		c-9.4,3.5-17,9.3-22.9,17.3c-0.3,0.5-0.7,0.9-1,1.4c-0.1,0.1-0.2,0.2-0.4,0.1c-0.1,0-0.1-0.1-0.1-0.2c0-0.8-0.1-1.6-0.1-2.4v-56.8
		c0-0.7,0-1.3,0-2c0-0.3,0-0.6,0-0.9c0-0.4-0.3-0.7-0.7-0.7c-0.3,0-0.6,0-0.9,0H14.1c-1.3,0-1.4,0.2-1.4,1.3c0,0.6,0,1.2,0,1.7
		c0,31.2,0,62.4,0,93.6c0,2.6,0.2,5.2,0.5,7.8c0.6,4.4,1.6,8.7,3.3,12.8c4.7,11.6,12.2,20.8,22.9,27.3c8.7,5.3,18.1,7.9,28.3,7.9
		c1.7,0,3.5-0.1,5.2-0.2c2.6-0.2,5.2-0.6,7.7-1.2c9.9-2.3,18.5-7,25.9-14c3.3-3.2,6.2-6.7,8.7-10.6c0.4-0.6,0.8-1.2,1.2-1.9
		c0.2,0.1,0.5,0.2,0.6,0.4c0.4,0.5,0.7,1.1,1,1.7c6.7,11.1,16.1,18.9,28.2,23.4c4.4,1.6,8.9,2.5,13.5,3c6.8,0.7,13.5,0.1,20.1-1.6
		c9.9-2.6,18.5-7.5,25.9-14.5c3.3-3.2,6.2-6.7,8.6-10.7c0.2-0.4,0.4-0.8,0.6-1.1c0.2-0.3-0.1-0.7-0.5-0.7c-0.3,0-0.6,0-0.9,0h-13.7
		c-0.3,0-0.6,0-0.9,0c-0.4,0-0.7,0.2-1,0.4c-0.3,0.3-0.6,0.7-0.9,1c-2,2.2-4.1,4.1-6.4,5.8c-6.1,4.3-12.8,7.1-20.2,8
		c-4.1,0.5-8.3,0.4-12.4-0.2c-5.1-0.8-9.9-2.6-14.4-5.3c-9.8-5.9-17.5-16.6-18.7-30.3c0-0.4,0-0.7,0-1.1c0-0.3,0.3-0.5,0.6-0.6
		c0.8,0,1.6-0.1,2.4-0.1h80.9c0.4,0,0.7,0,1.1,0.1c0.3,0,0.6,0.3,0.6,0.5c0.2,1.4,0.4,2.9,0.6,4.3c0.8,4.1,2,8.2,3.7,12
		c1.6,3.6,3.5,7,5.7,10.2c5,7.5,11.5,13.4,19.5,17.6c6.3,3.4,13.1,5.4,20.3,6.1c6.9,0.7,13.8,0.2,20.5-1.6c8.1-2.1,15.4-5.9,22-11.1
		c1.6-1.3,3.1-2.6,4.5-4.1c0.2-0.2,0.4-0.4,0.7-0.5c0.1,0,0.3,0.1,0.3,0.2c0,0.7,0.1,1.4,0.1,2.2c0,14.9,0,29.7,0,44.6
		c0,3,0,5.9,0,8.9c0,0.6,0,1.2,0.1,1.7c0,0.3,0.3,0.5,0.6,0.5c0.3,0,0.6,0,0.9,0c3.6,0,7.3,0,10.9,0c0.3,0,0.6,0,0.9,0
		c0.4,0,0.7-0.3,0.7-0.7c0-0.8,0-1.6,0-2.4c0-19.1,0-38.2,0-57.2c0-0.7,0-1.5,0-2.2c0-0.1,0-0.3,0.1-0.4c0-0.1,0.1-0.1,0.1-0.1
		c0.1,0,0.2,0,0.2,0c0.4,0.4,0.7,0.9,1.1,1.3c4.3,5.9,9.6,10.6,15.9,14.3c5.8,3.3,12.1,5.3,18.7,5.9c4.9,0.5,9.9,0.3,14.7-0.5
		c3.1-0.5,6.1-1.3,9-2.4c13.6-5,23.8-13.9,30.7-26.6c4.1-7.5,6.1-15.6,6.4-24.2C419.4,261.3,419.3,259,419.1,256.7z M100.2,288.9
		c-6.1,7.5-14,12.2-23.6,14.1c-3.9,0.8-7.8,1-11.7,0.7c-9.3-0.7-17.5-3.9-24.4-10.2c-6.4-5.7-10.5-12.8-12.7-21.1
		c-1.2-4.5-1.5-9-1.3-13.6c0.7-10.6,4.6-19.8,12-27.5c5.4-5.5,11.9-9.1,19.4-11c2.7-0.7,5.5-1,8.4-1.1c3-0.1,5.9,0.1,8.9,0.6
		c3.9,0.7,7.7,1.9,11.3,3.8c10.3,5.4,17.3,13.6,21.1,24.6c0.8,2.3,1.3,4.6,1.6,7c0.3,2.2,0.4,4.3,0.4,6.5
		C109.7,271.9,106.6,281,100.2,288.9z M203.9,253.6c-0.7,0-1.5,0-2.2,0H128c-0.7,0-1.5,0-2.2,0c-0.4,0-0.6-0.4-0.5-0.8
		c0-0.3,0.1-0.6,0.2-0.8c2.3-9.3,7.2-16.9,14.5-23c4.9-4.1,10.6-6.8,16.9-8.1c2.6-0.5,5.3-0.8,8-0.8c4.1,0,8.1,0.5,12,1.6
		c5.4,1.6,10.2,4.4,14.4,8.2c6.2,5.6,10.4,12.6,12.7,20.7c0.2,0.8,0.4,1.6,0.5,2.3C204.4,253.3,204.2,253.6,203.9,253.6z
		 M225.1,252.7c1.5-7.7,4.8-14.4,10-20.2c3.4-3.8,7.3-7,11.9-9.4c5-2.6,10.3-3.9,15.8-4.2c1.5-0.1,3,0,4.6,0
		c5.2,0.2,10.2,1.4,14.9,3.7c3.8,1.8,7.2,4.3,10.2,7.3c5.9,5.7,9.8,12.6,11.7,20.5c0.2,0.8,0.3,1.6,0.5,2.3c0.1,0.6-0.2,0.9-0.9,0.9
		c-0.7,0-1.4,0-2.2,0h-73.7c-0.7,0-1.3,0-2,0C225.2,253.7,225,253.4,225.1,252.7z M308.4,285.8c0,0.4,0,0.9,0,1.3
		c0,0.5-0.4,0.8-0.9,0.8c-0.4,0-0.7,0-1.1,0h-6.5c-1.7,0-1.6,0-2.6,1.2c-5.6,6.2-12.4,10.4-20.4,12.7c-4.2,1.2-8.5,1.7-12.9,1.6
		c-3.8-0.1-7.5-0.6-11.1-1.7c-7.1-2.2-13.1-6-18.1-11.6c-2-2.2-3.7-4.5-5-7.1c-1.8-3.4-3.2-7-3.9-10.8c-0.3-1.4-0.5-2.9-0.7-4.3
		c0-0.3,0-0.6,0-0.9c0.2-0.1,0.4-0.2,0.6-0.3c0.7,0,1.3-0.1,2-0.1h78.1c0.5,0,1,0,1.5,0c0.8,0,1.1,0.3,1.1,1c0,0.4,0,0.7,0,1.1
		C308.4,274.5,308.4,280.2,308.4,285.8z M405.4,263.1c-0.5,17.9-11.5,31.9-25.8,37.9c-3.6,1.5-7.4,2.5-11.3,2.9
		c-2.1,0.2-4.2,0.3-6.3,0.2c-14.9-0.6-27.3-8.7-34-20.3c-2.8-4.9-4.7-10.1-5.4-15.7c-0.3-2.1-0.3-4.3-0.5-6.5
		c0.1-4.9,0.8-9.7,2.5-14.3c2.7-7.5,7-13.8,13.2-18.8c5.2-4.2,11-6.9,17.6-8.1c3.3-0.7,6.7-0.8,10.2-0.7c2.3,0.1,4.5,0.3,6.7,0.7
		c3.4,0.7,6.6,1.7,9.7,3.2c10.2,5,17.2,12.9,21,23.5C404.8,252.3,405.5,257.6,405.4,263.1z"/>
	<path class="st0" d="M440.3,236.7c0,1.4-0.1,2.4-0.4,3.4c-0.4,1.1-1.1,1.9-2.1,2.3c-0.5,0.2-1.1,0.3-1.7,0.4
		c-1.2,0.1-2.5-0.1-3.6-0.5c-1.3-0.5-2.3-1.3-2.9-2.5c-0.4-0.8-0.7-1.6-1-2.4c-0.4-1.3-0.8-2.6-1.2-3.9c-0.4-1.2-0.8-2.5-1.3-3.7
		c-1.4-3.8-3.5-7.3-6.1-10.5c-3.1-3.7-6.6-7.2-10.3-10.3c-3.2-2.7-6.8-4.7-10.7-6.2c-1.7-0.6-3.4-1.2-5.1-1.7c-1-0.3-1.9-0.6-2.9-1
		c-0.8-0.3-1.6-0.7-2.3-1.2c-1.9-1.3-2.7-3.9-1.6-6.2c0.5-1.1,1.3-1.9,2.5-2.3c1.1-0.4,2.2-0.6,3.4-0.5c0.8,0.1,1.6,0.2,2.4,0.4
		c3.6,0.8,7.2,1.8,10.6,3.2c9.6,3.8,17.5,9.9,23.7,18.1c4.3,5.7,7.6,12,9.6,18.9c0.4,1.5,0.7,3,1,4.5
		C440.3,235.7,440.3,236.4,440.3,236.7z"/>
	<path class="st0" d="M465.7,237.3c0,3.6-1.9,5.2-4.6,5.7c-2.3,0.4-4.2-0.4-5.4-2.4c-0.4-0.7-0.8-1.6-1-2.4
		c-0.4-1.3-0.8-2.6-1.2-3.9c-3.7-12.9-10.3-24.2-19.5-34c-3.4-3.6-6.9-7-10.8-10.1c-8.1-6.4-17-11.2-26.9-14.3
		c-1.4-0.4-2.8-0.8-4.2-1.3c-0.8-0.3-1.6-0.6-2.5-0.9c-0.5-0.2-0.9-0.4-1.4-0.6c-3.3-1.8-3.4-6.2-0.2-8.2c1.2-0.8,2.5-1.1,3.9-1
		c1,0.1,2,0.2,3,0.5c16.2,3.9,30.5,11.2,42.5,22.9c2.8,2.7,5.5,5.5,8.1,8.5c6.2,7,11,14.9,14.5,23.6c1.8,4.4,3.3,8.8,4.6,13.3
		c0.4,1.2,0.7,2.5,0.8,3.8C465.7,236.8,465.7,237.1,465.7,237.3z"/>
</g>
</svg>
